<svg width="137" height="149" viewBox="0 0 137 149" fill="none" xmlns="http://www.w3.org/2000/svg">
<g clip-path="url(#clip0_1_21)">
<path d="M126.77 -0.230011H9.45001C3.96582 -0.230011 -0.47998 4.2158 -0.47998 9.69999V138.95C-0.47998 144.434 3.96582 148.88 9.45001 148.88H126.77C132.254 148.88 136.7 144.434 136.7 138.95V9.69999C136.7 4.2158 132.254 -0.230011 126.77 -0.230011Z" fill="#231F20"/>
<path d="M40.31 10.64C23.19 10.64 9.27002 24.83 9.27002 42.27C9.27002 59.71 23.2 73.82 40.31 73.82C57.42 73.82 71.44 59.67 71.44 42.27C71.44 24.87 57.48 10.64 40.31 10.64ZM56.21 42.27C56.21 52 49.37 59.34 40.31 59.34C31.25 59.34 24.41 52 24.41 42.27C24.41 32.54 31.25 25.11 40.31 25.11C49.37 25.11 56.21 32.49 56.21 42.27Z" fill="white"/>
<path d="M84.95 72.81H86.02C89.9 72.81 93.06 69.65 93.06 65.77V52.09L97.5 51.95L109.33 69.66C110.64 71.63 112.83 72.8 115.19 72.8H115.82C118.46 72.8 120.85 71.35 122.07 69C123.29 66.66 123.1 63.87 121.58 61.71L113.23 49.74C119.28 46.4 123.34 39.49 123.34 32.21C123.34 26.75 121.59 21.74 118.41 18.1C114.72 13.87 109.28 11.63 102.67 11.63H84.94C81.06 11.63 77.9 14.79 77.9 18.67V65.76C77.9 69.64 81.06 72.8 84.94 72.8L84.95 72.81ZM93.06 39.26V25.45H101.51C106.08 25.45 108.12 28.98 108.12 32.48C108.12 35.01 107.14 39.26 100.59 39.26H93.06Z" fill="white"/>
<path d="M127.37 129.24L109.87 82.15C108.85 79.41 106.2 77.56 103.27 77.56H98.06C95.14 77.56 92.49 79.4 91.47 82.14L73.9 129.23C73.09 131.39 73.4 133.81 74.71 135.7C76.02 137.59 78.19 138.72 80.49 138.72H81.46C84.49 138.72 87.1801 136.79 88.1401 133.91L91.1401 124.91H110.21L113.27 133.94C114.24 136.8 116.92 138.72 119.93 138.72H120.77C123.07 138.72 125.23 137.59 126.55 135.7C127.86 133.81 128.17 131.39 127.37 129.23V129.24ZM105.59 111.28H95.75L100.67 96.69L105.59 111.28Z" fill="white"/>
<path d="M60.49 77.79H59.65C56.91 77.79 54.41 79.4 53.26 81.89L40.38 119.85L27.48 81.76L27.36 81.49C26.13 79.21 23.76 77.79 21.17 77.79H20.2C17.9 77.79 15.73 78.92 14.42 80.81C13.11 82.7 12.8 85.12 13.61 87.28L31.18 134.37C32.2 137.11 34.85 138.95 37.77 138.95H42.98C45.91 138.95 48.56 137.11 49.58 134.36L67.08 87.27C67.88 85.11 67.58 82.69 66.26 80.8C64.95 78.91 62.79 77.78 60.48 77.78L60.49 77.79Z" fill="white"/>
</g>
<defs>
<clipPath id="clip0_1_21">
<rect width="137" height="149" fill="white"/>
</clipPath>
</defs>
</svg>
